<svg width="24" height="24" viewBox="0 0 24 24" fill="none" xmlns="http://www.w3.org/2000/svg">
<g clip-path="url(#clip0_52_109)">
<mask id="mask0_52_109" style="mask-type:luminance" maskUnits="userSpaceOnUse" x="0" y="0" width="24" height="24">
<path d="M18.9336 0H5.06422C2.26733 0 0 2.26733 0 5.06422V18.9336C0 21.7305 2.26733 23.9978 5.06422 23.9978H18.9336C21.7305 23.9978 23.9978 21.7305 23.9978 18.9336V5.06422C23.9978 2.26733 21.7305 0 18.9336 0Z" fill="white"/>
</mask>
<g mask="url(#mask0_52_109)">
<path d="M18.9336 0H5.06422C2.26733 0 0 2.26733 0 5.06422V18.9336C0 21.7305 2.26733 23.9978 5.06422 23.9978H18.9336C21.7305 23.9978 23.9978 21.7305 23.9978 18.9336V5.06422C23.9978 2.26733 21.7305 0 18.9336 0Z" fill="#1C75BC"/>
<mask id="mask1_52_109" style="mask-type:luminance" maskUnits="userSpaceOnUse" x="-1" y="0" width="25" height="26">
<path d="M24 0H-0.77063V25.9817H24V0Z" fill="white"/>
</mask>
<g mask="url(#mask1_52_109)">
<path d="M23.9991 0H1.30725V22.6466H23.9991V0Z" fill="#1C75BC"/>
<path d="M21.8588 4.6981C21.1914 3.55527 20.3493 2.54023 19.4644 1.87428C18.5796 1.20832 17.7561 0.97248 17.143 1.16573C16.4945 1.37351 16.0458 2.05401 15.9885 3.21553C15.9396 4.18071 16.1676 5.33704 16.6131 6.50377C16.6839 6.69181 16.761 6.87882 16.8421 7.06583L16.8682 7.12505L18.7149 8.4341L18.4401 8.02476C18.2333 7.71474 18.0454 7.39242 17.878 7.05959C17.7582 6.82168 17.6489 6.58064 17.5521 6.33753C17.2262 5.51677 17.0442 4.70121 17.0545 3.9937C17.0671 3.12931 17.3668 2.60465 17.828 2.42803C18.2715 2.25972 18.869 2.40724 19.5352 2.90802C20.2015 3.40878 20.8188 4.16512 21.3133 5.02432C21.8203 5.90741 22.2002 6.90998 22.3292 7.84814C22.4646 8.83929 22.2939 9.56342 21.8879 9.92601C21.5392 10.2325 21.026 10.2595 20.4066 9.94471C20.2619 9.8698 20.1228 9.78473 19.9901 9.69017L12.2753 4.23888L12.0244 5.74741L20.1015 11.367C20.2494 11.4707 20.4034 11.5655 20.5627 11.6506C21.5163 12.1701 22.295 12.1078 22.7915 11.5997C23.3328 11.047 23.5316 9.9738 23.3047 8.57125C23.0965 7.27257 22.5511 5.89703 21.8567 4.71367L21.8588 4.6981Z" fill="white"/>
<path d="M8.48389 5.53128C7.21491 4.85077 5.86472 4.72402 4.60823 5.1157H4.59991C3.02279 5.61335 1.4946 6.965 0.454635 9.19559C-0.734188 11.7348 -1.06418 14.9004 -0.496829 17.9113V17.9216C0.119444 21.1911 1.74757 24.0274 4.1148 25.3105C6.41541 26.5572 8.73582 25.9557 10.4733 24.178C12.0285 22.5874 13.0633 20.1096 13.3287 17.2598C13.5075 15.3771 13.3385 13.4776 12.8301 11.6557C12.7606 11.4002 12.6823 11.1502 12.5949 10.9057L12.5688 10.8278L10.1828 9.2413L10.4837 9.76077C10.7195 10.1735 10.9214 10.6047 11.0875 11.0501C11.2149 11.3903 11.3236 11.7371 11.4132 12.0891C11.7562 13.4346 11.8378 14.8332 11.6538 16.2095C11.3852 18.2094 10.5846 19.8457 9.44889 20.8514C8.22156 21.9298 6.66422 22.2103 5.12666 21.3356C3.55786 20.4411 2.45649 18.6032 1.9693 16.4525C1.5123 14.4162 1.63722 12.2387 2.37529 10.3976C3.04986 8.71872 4.10335 7.65796 5.24845 7.2185C5.69384 7.04783 6.1697 6.97063 6.64631 6.99172C7.12293 7.01282 7.59007 7.13175 8.01856 7.3411C8.2227 7.43599 8.41902 7.5468 8.60569 7.67252L12.0181 9.95817L17.9112 13.8968L17.8915 11.8927L9.06373 5.87413C8.87706 5.74905 8.68348 5.63459 8.48389 5.53128Z" fill="white"/>
<path d="M8.62549 16.9284L7.93113 17.4365C7.73334 17.5809 7.49391 17.4365 7.39814 17.1154L6.87764 15.3492C6.78707 15.0448 6.55388 14.9015 6.35714 15.0271L5.25159 15.719C5.03402 15.8552 4.78626 15.7056 4.70194 15.3867L4.44377 14.4183C4.36154 14.1066 4.47188 13.7638 4.68632 13.6444L5.77937 13.0355C5.97925 12.9244 6.07085 12.6054 5.98758 12.3228L5.54306 10.8205C5.46395 10.5535 5.55659 10.2636 5.75127 10.1733L6.42272 9.85534C6.60385 9.77015 6.81413 9.90626 6.89533 10.1608L7.35129 11.5893C7.43665 11.8573 7.65214 11.9945 7.83015 11.8958L8.74103 11.3878C8.9076 11.2953 9.11267 11.4283 9.20115 11.6849L9.4791 12.4911C9.5707 12.756 9.51136 13.0562 9.34376 13.1613L8.42665 13.7347C8.2476 13.8479 8.17368 14.171 8.26633 14.462L8.79828 16.1315C8.87948 16.4339 8.81182 16.7912 8.62549 16.9284Z" fill="white"/>
<path d="M19.1916 5.90739L19.4758 6.43829C19.5664 6.60868 19.5799 6.78737 19.4987 6.83621L19.1864 7.03465C19.1052 7.08659 18.9636 6.98477 18.8741 6.80815L18.5878 6.25855C18.4983 6.0861 18.4931 5.90948 18.5753 5.86377L18.8959 5.6861C18.9678 5.64247 19.1031 5.74117 19.1916 5.90739Z" fill="white"/>
<path d="M19.0668 4.0861L19.4165 4.72608C19.5029 4.88296 19.5123 5.044 19.4384 5.08347L19.1584 5.23516C19.0814 5.27672 18.9502 5.17906 18.8607 5.01699L18.5067 4.35622C18.4224 4.1983 18.4172 4.04454 18.4953 4.00506L18.7784 3.87312C18.8544 3.8378 18.9824 3.93233 19.0668 4.0861Z" fill="white"/>
<path d="M20.5918 6.87258L20.9916 7.59984C21.0862 7.7723 21.104 7.95515 21.0322 8.00814L20.7615 8.20866C20.6876 8.26371 20.5533 8.16398 20.4491 7.98632L20.0442 7.22997C19.9516 7.05647 19.9401 6.87778 20.0141 6.82894L20.2899 6.65129C20.3669 6.60973 20.5002 6.70531 20.5918 6.87258Z" fill="white"/>
<path d="M20.4949 5.15518L20.7708 5.64659C20.8593 5.80451 20.8749 5.96762 20.8072 6.01021L20.5304 6.18475C20.4586 6.22943 20.3222 6.13385 20.2378 5.97074L19.9589 5.4627C19.8715 5.30374 19.8547 5.14167 19.9318 5.10219L20.2129 4.94634C20.2825 4.91206 20.4086 5.00453 20.4949 5.15518Z" fill="white"/>
<path d="M19.9942 5.77853C20.1608 6.08294 20.1857 6.40189 20.0474 6.48813L20.0077 6.51306C19.8661 6.60241 19.6122 6.41748 19.4435 6.09749C19.2769 5.78581 19.2603 5.47413 19.4029 5.39205L19.4435 5.3692C19.5841 5.29959 19.8287 5.47932 19.9942 5.77853Z" fill="white"/>
</g>
</g>
</g>
<defs>
<clipPath id="clip0_52_109">
<rect width="24" height="24" fill="white"/>
</clipPath>
</defs>
</svg>
