<svg width="245" height="150" viewBox="0 0 245 150" fill="none" xmlns="http://www.w3.org/2000/svg">
<path fill-rule="evenodd" clip-rule="evenodd" d="M218 0C232.912 3.5498e-05 245 12.0893 245 27.001V123C245 137.912 232.912 150.001 218 150.001H86.6416C86.8281 149.915 87.0154 149.829 87.2021 149.741C104.915 141.415 118.269 126.868 124.142 109.089C128.056 97.347 128.422 85.104 125.221 72.9688C124.791 71.2685 124.263 69.5928 123.636 67.9424L123.455 67.418L100.732 54.6455L103.245 58.2822C105.208 61.1687 106.803 64.1336 108.014 67.1475C108.944 69.4502 109.676 71.7747 110.207 74.1094C112.237 83.0354 111.529 92.002 108.12 100.524C103.154 112.908 93.1333 122.381 80.3711 127.473C66.5887 132.922 50.303 132.934 35.4971 125.64C20.3925 118.184 11.1256 105.273 8.50488 91.0762C6.06758 77.6382 9.75613 63.9646 19.3623 53.1221C28.1379 43.2357 40.1171 37.7007 52.3496 36.2119C57.1071 35.6345 62.0744 35.6847 66.9404 36.3594C71.8063 37.0341 76.4667 38.3194 80.6309 40.1338C82.6201 40.9675 84.5121 41.893 86.2881 42.9023L174.868 92.9521L176.88 80.2148L92.9746 32.0127C91.1979 31.0074 89.3385 30.0607 87.4053 29.1787C75.1397 23.4212 61.4289 21.0854 48.1064 22.1445L48.0215 22.1348C31.2928 23.5024 14.1211 30.3436 0.987305 43.3154C0.653747 43.6436 0.325517 43.9756 0 44.3086V27.001C0 12.0893 12.0883 0 27 0H218ZM65.9922 56.748C65.4405 55.041 63.4337 53.9395 61.4814 54.2744L54.2422 55.5293C52.1453 55.8818 50.8741 57.6156 51.3906 59.3994L54.29 69.4346C54.832 71.322 53.5394 73.2422 51.3662 73.7207L39.4805 76.3428C37.1487 76.8576 35.6376 78.9078 36.1367 80.9785L37.7148 87.4141C38.2273 89.5333 40.604 90.764 42.9863 90.1475L55.0918 87.0117C57.2491 86.4374 59.4836 87.6124 60.0762 89.6465L63.4629 101.442C64.0905 103.588 66.3875 104.776 68.5762 104.084L76.2607 101.648C78.3236 100.99 79.4128 98.7992 78.9141 96.7891L75.3018 85.5928C74.6731 83.6421 75.7891 81.6764 77.751 81.1611L87.793 78.5635C89.6281 78.0878 90.5688 76.2496 89.9219 74.4648L87.9609 69.0352C87.3369 67.3066 85.3802 66.2293 83.5693 66.627L73.6641 68.8174C71.729 69.2415 69.6703 68.1264 69.0908 66.3291L65.9922 56.748ZM204.089 18.4375C195.748 13.2085 187.562 10.7775 181.059 11.3076C174.176 11.8899 168.82 15.6986 166.949 23.0029C165.381 29.0709 166.442 36.6664 169.723 44.5742C170.241 45.8473 170.824 47.1211 171.45 48.3994L171.652 48.8047L189.149 59.2061L186.783 56.2969C185.004 54.0953 183.434 51.8378 182.083 49.5361C181.118 47.8909 180.263 46.2372 179.539 44.585C177.104 39.0079 176.136 33.6264 177.024 29.1494C178.108 23.6797 181.764 20.691 186.689 20.0938C191.425 19.5292 197.392 21.144 203.673 25.0771C209.954 29.0103 215.45 34.5092 219.573 40.5215C223.798 46.6995 226.588 53.4913 226.875 59.5898C227.168 66.0316 224.616 70.4327 220.051 72.2725C216.135 73.8212 210.84 73.4099 204.834 70.71C203.433 70.0705 202.099 69.3725 200.844 68.6221L127.727 25.2812L123.485 34.5684L200.133 79.3877C201.535 80.2136 203.01 80.9889 204.55 81.71C213.757 86.0878 221.814 86.5766 227.47 83.917C233.634 81.0246 236.86 74.441 236.082 65.2852C235.382 56.8095 231.306 47.4627 225.491 39.167L225.53 39.0703C219.948 31.0624 212.43 23.6668 204.089 18.4375ZM210.13 51.4287C209.375 50.2637 208.113 49.5064 207.277 49.6826L204.251 50.4961C203.439 50.7222 203.36 51.8694 204.118 53.0752L207.436 58.333C208.307 59.5781 209.574 60.3637 210.394 60.0986L213.392 59.1328C214.187 58.8782 214.208 57.6987 213.427 56.4971L210.13 51.4287ZM196.834 43.7168C196.11 42.5617 194.83 41.7822 194.045 41.9775L190.56 42.7402C189.666 42.9371 189.524 44.0641 190.252 45.2598L192.581 49.0713C193.304 50.2933 194.644 51.0997 195.534 50.8623L198.957 49.958C199.844 49.7404 199.903 48.591 199.162 47.4072L196.834 43.7168ZM205.21 43.8096C203.843 41.7235 201.531 40.3057 200.013 40.5879L199.571 40.6865C198.018 41.0454 197.844 43.0425 199.208 45.209C200.584 47.4302 202.985 48.8913 204.536 48.4854L204.97 48.3721C206.485 47.9821 206.582 45.9299 205.21 43.8096ZM208.372 38.7783L205.316 39.4482C204.483 39.6113 204.474 40.658 205.195 41.7656L207.496 45.3057C208.181 46.436 209.473 47.1976 210.26 46.9961L213.294 46.2021C214.035 46.0084 214.055 44.9565 213.322 43.8545L211.035 40.4238C210.315 39.3701 209.125 38.6401 208.372 38.7783ZM194.843 30.3418L191.792 30.8574C190.947 31.0193 190.831 32.0001 191.521 33.0977L194.422 37.6924C195.161 38.8219 196.398 39.5899 197.234 39.4141L200.275 38.7695C201.077 38.6028 201.159 37.5707 200.446 36.4775L197.565 32.0195C196.87 30.9485 195.661 30.2041 194.843 30.3418Z" fill="white"/>
</svg>
