<svg width="247" height="150" viewBox="0 0 247 150" fill="none" xmlns="http://www.w3.org/2000/svg">
<g clip-path="url(#clip0_52_79)">
<rect width="247" height="150" rx="28" fill="#1C75BC"/>
<g clip-path="url(#clip1_52_79)">
<path d="M251.999 5H6.49069V200.248H251.999V5Z" fill="#1C75BC"/>
<path d="M226.53 39.0702C220.948 31.0623 213.43 23.6666 205.089 18.4373C196.748 13.208 188.562 10.7773 182.058 11.3075C175.176 11.8898 169.821 15.6981 167.95 23.0025C166.381 29.0705 167.442 36.6655 170.723 44.5734C171.241 45.8468 171.824 47.1207 172.451 48.3994L172.652 48.8046L190.15 59.2056L187.783 56.2967C186.004 54.095 184.434 51.837 183.083 49.5352C182.118 47.8899 181.263 46.2367 180.539 44.5844C178.104 39.0073 177.136 33.6262 178.025 29.1492C179.108 23.6792 182.764 20.6907 187.69 20.0935C192.425 19.5289 198.392 21.143 204.673 25.0762C210.954 29.0094 216.451 34.5085 220.573 40.5209C224.798 46.699 227.588 53.491 227.875 59.5896C228.168 66.0315 225.616 70.4321 221.05 72.2718C217.134 73.8205 211.84 73.4095 205.834 70.7094C204.432 70.0699 203.099 69.3723 201.843 68.6219L128.727 25.2812L124.486 34.5674L201.133 79.3871C202.535 80.2131 204.01 80.9887 205.55 81.7098C214.758 86.0877 222.815 86.5759 228.47 83.9161C234.634 81.0237 237.86 74.4403 237.082 65.2842C236.382 56.8086 232.306 47.4624 226.491 39.1667L226.53 39.0702Z" fill="white"/>
<path d="M88.4052 29.1787C76.1396 23.4211 62.429 21.0848 49.1065 22.1439L49.0212 22.1344C32.2924 23.502 15.1216 30.3434 1.98784 43.3152C-13.0141 58.0758 -19.8981 77.7857 -17.4059 97.5318L-17.4174 97.5977C-16.1157 107.905 -29.2906 142.711 -29.2906 142.711C-29.2906 142.711 18.3683 148.386 31.695 153.203C48.0888 159.129 67.4903 159.482 88.2026 149.741C105.915 141.414 119.269 126.868 125.142 109.088C129.057 97.3463 129.422 85.1033 126.221 72.9678C125.791 71.2675 125.263 69.5922 124.636 67.9417L124.455 67.4178L101.733 54.6449L104.245 58.2821C106.208 61.1686 107.803 64.1334 109.013 67.1474C109.944 69.4501 110.677 71.774 111.208 74.1086C113.237 83.0347 112.529 92.001 109.12 100.524C104.155 112.907 94.1337 122.381 81.3714 127.472C67.5889 132.922 51.303 132.934 36.497 125.639C21.3925 118.183 12.1255 105.273 9.50479 91.0759C7.06743 77.6379 10.7558 63.9638 20.3621 53.1212C29.1377 43.2348 41.1173 37.7004 53.3499 36.2117C58.1075 35.6342 63.0743 35.6844 67.9403 36.3591C72.8063 37.0338 77.4669 38.3185 81.6312 40.133C83.6204 40.9667 85.5119 41.8926 87.2879 42.902L119.767 61.2758L175.868 92.9519L177.88 80.2144L93.9744 32.0119C92.1977 31.0065 90.3384 30.0606 88.4052 29.1787Z" fill="white"/>
<path d="M77.2605 101.648L69.576 104.084C67.3874 104.775 65.0908 103.587 64.4632 101.442L61.0758 89.6457C60.4832 87.6116 58.2496 86.4374 56.0923 87.0117L43.9865 90.147C41.6041 90.7636 39.2278 89.5333 38.7154 87.414L37.1373 80.9777C36.6381 78.9069 38.149 76.857 40.4809 76.3423L52.3668 73.7201C54.54 73.2416 55.8323 71.322 55.2903 69.4346L52.3908 59.3988C51.8744 57.615 53.1452 55.8811 55.2421 55.5285L62.4815 54.2735C64.4338 53.9385 66.4404 55.0407 66.992 56.7477L70.0905 66.3285C70.6699 68.126 72.729 69.2406 74.6642 68.8164L84.5698 66.6269C86.3807 66.2292 88.3374 67.3057 88.9615 69.0342L90.9217 74.4646C91.5686 76.2494 90.628 78.087 88.7927 78.5626L78.7507 81.1604C76.7887 81.6756 75.6734 83.6417 76.3023 85.5925L79.9139 96.7887C80.4127 98.799 79.3236 100.99 77.2605 101.648Z" fill="white"/>
<path d="M197.834 43.7161L200.162 47.4069C200.903 48.5907 200.844 49.7397 199.957 49.9574L196.534 50.862C195.644 51.0994 194.304 50.2928 193.581 49.0706L191.252 45.2588C190.524 44.063 190.666 42.9366 191.56 42.7399L195.045 41.9766C195.83 41.7812 197.11 42.561 197.834 43.7161Z" fill="white"/>
<path d="M198.565 32.0194L201.446 36.4767C202.159 37.5701 202.077 38.6024 201.275 38.769L198.235 39.4136C197.399 39.5898 196.161 38.8214 195.422 37.6915L192.521 33.0976C191.831 32 191.947 31.0186 192.792 30.8567L195.843 30.3409C196.661 30.203 197.87 30.9482 198.565 32.0194Z" fill="white"/>
<path d="M211.13 51.4285L214.427 56.4962C215.208 57.6979 215.188 58.8781 214.392 59.1328L211.394 60.0978C210.575 60.3633 209.308 59.5781 208.436 58.3328L205.118 53.0746C204.359 51.8687 204.439 50.7219 205.251 50.496L208.278 49.6819C209.114 49.5057 210.375 50.2633 211.13 51.4285Z" fill="white"/>
<path d="M212.035 40.4229L214.322 43.8537C215.055 44.9561 215.035 46.0086 214.294 46.2021L211.26 46.9953C210.474 47.1972 209.181 46.436 208.496 45.3054L206.196 41.7656C205.474 40.6578 205.483 39.6107 206.316 39.4476L209.372 38.7778C210.125 38.6395 211.315 39.3691 212.035 40.4229Z" fill="white"/>
<path d="M206.21 43.8096C207.582 45.9299 207.486 47.9818 205.97 48.3718L205.537 48.4851C203.985 48.8913 201.584 47.4298 200.208 45.2082C198.844 43.0418 199.017 41.0454 200.571 40.6865L201.013 40.5876C202.531 40.3054 204.842 41.7234 206.21 43.8096Z" fill="white"/>
</g>
</g>
<defs>
<clipPath id="clip0_52_79">
<rect width="247" height="150" rx="28" fill="white"/>
</clipPath>
<clipPath id="clip1_52_79">
<rect width="268" height="224" fill="white" transform="translate(-15.99 5)"/>
</clipPath>
</defs>
</svg>
